<svg width="20" height="22" viewBox="0 0 20 22" fill="none" xmlns="http://www.w3.org/2000/svg">
<path d="M19 16.15H19.85V17.85H0.15V16.15H1H1.15V16V9.031C1.15 4.12537 5.11332 0.15 10 0.15C14.8867 0.15 18.85 4.12537 18.85 9.031V16V16.15H19ZM2.85 16V16.15H3H17H17.15V16V9.031C17.15 5.06578 13.9495 1.85 10 1.85C6.05053 1.85 2.85 5.06578 2.85 9.031V16ZM12.3452 19.15C12.3089 19.7185 12.0669 20.2565 11.6617 20.6617C11.221 21.1024 10.6233 21.35 10 21.35C9.37674 21.35 8.77901 21.1024 8.3383 20.6617C7.93308 20.2565 7.69113 19.7185 7.65479 19.15H12.3452Z" fill="#020202" stroke="white" stroke-width="0.3"/>
</svg>
