<svg width="16" height="16" viewBox="0 0 16 16" fill="none" xmlns="http://www.w3.org/2000/svg">
<path d="M11.6 1.75V1.9H11.75H14.75C14.9091 1.9 15.0617 1.96321 15.1743 2.07574C15.2868 2.18826 15.35 2.34087 15.35 2.5V14.5C15.35 14.6591 15.2868 14.8117 15.1743 14.9243C15.0617 15.0368 14.9091 15.1 14.75 15.1H1.25C1.09087 15.1 0.938257 15.0368 0.825736 14.9243C0.713214 14.8117 0.65 14.6591 0.65 14.5V2.5C0.65 2.34087 0.713214 2.18826 0.825736 2.07574C0.938258 1.96321 1.09087 1.9 1.25 1.9H4.25H4.4V1.75V0.4H5.6V1.75V1.9H5.75H10.25H10.4V1.75V0.4H11.6V1.75ZM10.4 3.25V3.1H10.25H5.75H5.6V3.25V4.6H4.4V3.25V3.1H4.25H2H1.85V3.25V6.25V6.4H2H14H14.15V6.25V3.25V3.1H14H11.75H11.6V3.25V4.6H10.4V3.25ZM14.15 7.75V7.6H14H2H1.85V7.75V13.75V13.9H2H14H14.15V13.75V7.75Z" fill="#87898E" stroke="white" stroke-width="0.3"/>
</svg>
