<svg width="24" height="19" viewBox="0 0 24 19" fill="none" xmlns="http://www.w3.org/2000/svg">
<path d="M9.91717 9.99999H11.9172C13.1363 9.99999 14.0551 10.1638 14.9172 11C15.7792 11.8362 15.9172 12.8174 15.9172 14H8.91717V15H16.9172V14C16.9139 12.9456 16.505 11.8869 15.9172 11H18.9172C19.8828 10.9997 21.1007 11.5 21.9172 12C22.7337 12.5 23.5022 13.1543 23.9172 14C21.5013 17.0926 17.3321 19 12.9172 19C10.0968 19 7.85801 18.0256 5.91717 17V7.99999C7.15994 8.17268 8.93191 9.2452 9.91717 9.99999ZM3.91717 6.99999C4.16737 7.00002 4.7302 6.83871 4.91717 6.99999C5.10414 7.16127 4.8879 7.75895 4.91717 7.99999V17C4.91717 17.2628 5.10874 17.8142 4.91717 18C4.7256 18.1858 4.18809 18 3.91717 18H1.91717C1.64625 18 1.10874 18.1858 0.917172 18C0.725605 17.8142 0.917172 17.2628 0.917172 17V7.99999C0.917172 7.73719 0.725605 7.18582 0.917172 6.99999C1.10874 6.81416 1.64625 6.99999 1.91717 6.99999H3.91717ZM13.9172 1.99999H14.9172C15.154 1.76833 14.6069 1.12578 14.9172 0.99999C15.2275 0.8742 15.5809 1.00066 15.9172 0.99999C16.2535 0.999322 16.6063 0.875434 16.9172 0.99999C17.228 1.12455 17.6794 1.76928 17.9172 1.99999C18.1549 2.2307 18.7889 2.69844 18.9172 2.99999C18.918 2.67376 19.0455 3.30154 18.9172 2.99999C18.9164 3.32622 19.0469 3.69902 18.9172 3.99999C18.7874 4.30096 18.156 4.77035 17.9172 4.99999L13.9172 8.99999L9.91717 4.99999C9.67837 4.77029 10.0468 4.30099 9.91717 3.99999C9.7875 3.69899 9.91786 3.32622 9.91717 2.99999C9.78877 3.30151 9.91648 2.67376 9.91717 2.99999C10.0456 2.69847 9.67934 2.23064 9.91717 1.99999C10.155 1.76934 10.6063 1.12446 10.9172 0.99999C11.228 0.875519 11.5809 0.999229 11.9172 0.99999C12.2535 1.00075 12.6069 0.874115 12.9172 0.99999C13.2274 1.12586 13.6804 1.76827 13.9172 1.99999Z" fill="url(#paint0_linear_515_2327)"/>
<defs>
<linearGradient id="paint0_linear_515_2327" x1="0.832031" y1="9.9721" x2="23.9172" y2="9.9721" gradientUnits="userSpaceOnUse">
<stop stop-color="#0BA360"/>
<stop offset="1" stop-color="#3CBA92"/>
</linearGradient>
</defs>
</svg>
