<svg width="18" height="20" viewBox="0 0 18 20" fill="none" xmlns="http://www.w3.org/2000/svg">
<path d="M16 18.15H16.15V18V2V1.85H16H2H1.85V2V18V18.15H2H16ZM17 19.85H1C0.774566 19.85 0.558365 19.7604 0.398959 19.601C0.239553 19.4416 0.15 19.2254 0.15 19V1C0.15 0.774566 0.239553 0.558365 0.398959 0.398959C0.558365 0.239553 0.774566 0.15 1 0.15H17C17.2254 0.15 17.4416 0.239553 17.601 0.398959C17.7604 0.558365 17.85 0.774566 17.85 1V19C17.85 19.2254 17.7604 19.4416 17.601 19.601C17.4416 19.7604 17.2254 19.85 17 19.85ZM5.15 5.15H12.85V6.85H5.15V5.15ZM5.15 9.15H12.85V10.85H5.15V9.15ZM5.15 13.15H12.85V14.85H5.15V13.15Z" fill="white" stroke="url(#paint0_linear_748_2926)" stroke-width="0.3"/>
<defs>
<linearGradient id="paint0_linear_748_2926" x1="9" y1="0" x2="9" y2="20" gradientUnits="userSpaceOnUse">
<stop stop-color="#8639B5"/>
<stop offset="1" stop-color="#092056"/>
</linearGradient>
</defs>
</svg>
