<svg width="23" height="22" viewBox="0 0 23 22" fill="none" xmlns="http://www.w3.org/2000/svg">
<path d="M1.91685 9.0001H4.91685V21.0001H1.91685C1.65163 21.0001 1.10438 21.1892 0.916846 21.0001C0.729309 20.8111 0.916846 20.2675 0.916846 20.0001V10.0001C0.916846 9.73275 0.729309 9.18915 0.916846 9.0001C1.10438 8.81105 1.65163 9.0001 1.91685 9.0001ZM6.91685 8.0001L13.9168 1.0001C13.7967 1.00881 14.0019 0.914108 13.9168 1.0001C13.8205 0.927253 14.037 0.991398 13.9168 1.0001L14.9168 2.0001C15.1537 2.17938 15.8184 1.71845 15.9168 2.0001C16.0153 2.28176 15.99 2.71073 15.9168 3.0001L14.9168 8.0001H20.9168C21.4473 8.0001 21.5418 7.622 21.9168 8.0001C22.2919 8.3782 22.9168 9.46539 22.9168 10.0001V12.0001C22.9171 12.2636 23.0162 12.7564 22.9168 13.0001L19.9168 20.0001C19.8413 20.1848 19.0815 20.889 18.9168 21.0001C18.7522 21.1112 19.115 21.0002 18.9168 21.0001H7.91685C7.65163 21.0001 7.10438 21.1892 6.91685 21.0001C6.72931 20.8111 6.91685 20.2675 6.91685 20.0001V8.0001C6.9169 7.73277 6.7293 8.18911 6.91685 8.0001Z" fill="url(#paint0_linear_515_2319)"/>
<defs>
<linearGradient id="paint0_linear_515_2319" x1="0.833496" y1="11.0239" x2="22.961" y2="11.0239" gradientUnits="userSpaceOnUse">
<stop stop-color="#0BA360"/>
<stop offset="1" stop-color="#3CBA92"/>
</linearGradient>
</defs>
</svg>
