<svg width="22" height="20" viewBox="0 0 22 20" fill="none" xmlns="http://www.w3.org/2000/svg">
<path d="M17.8999 4.12626L10.0713 11.1373L2.09924 4.10352L1.85 3.88361V4.216V16V16.15H2H11.85V17.85H1C0.774566 17.85 0.558365 17.7604 0.398959 17.601C0.239553 17.4416 0.15 17.2254 0.15 17V1C0.15 0.774566 0.239553 0.558365 0.398959 0.398959C0.558365 0.239553 0.774566 0.15 1 0.15H19C19.2254 0.15 19.4416 0.239553 19.601 0.398959C19.7604 0.558365 19.85 0.774566 19.85 1V9.85H18.15V4.238V3.90231L17.8999 4.12626ZM2.511 1.85H2.1143L2.41175 2.11247L9.96175 8.77447L10.0617 8.86269L10.1611 8.77375L17.6021 2.11175L17.8944 1.85H17.502H2.511ZM18.85 15V15.15H19H21.85V16.85H19H18.85V17V19.85H17.15V17V16.85H17H14.15V15.15H17H17.15V15V12.15H18.85V15Z" fill="white" stroke="url(#paint0_linear_21474_948)" stroke-width="0.3"/>
<defs>
<linearGradient id="paint0_linear_21474_948" x1="11" y1="0" x2="11" y2="20" gradientUnits="userSpaceOnUse">
<stop stop-color="#8639B5"/>
<stop offset="1" stop-color="#092056"/>
</linearGradient>
</defs>
</svg>
